PathFileType	4	(X/Y/Z)	paretic_pre_fa151403.trc
DataRate	CameraRate	NumFrames	NumMarkers	Units	OrigDataRate	OrigDataStartFrame	OrigNumFrames
58.68	58.68	27	11	cm	58.68	636	1017
Frame#	Time	NOSE			LEFT_SHOULDER			RIGHT_SHOULDER			LEFT_ELBOW			RIGHT_ELBOW			LEFT_WRIST			RIGHT_WRIST			LEFT_HIP			RIGHT_HIP			LEFT_INDEX			RIGHT_INDEX		
		X1	Y1	Z1	X2	Y2	Z2	X3	Y3	Z3	X4	Y4	Z4	X5	Y5	Z5	X6	Y6	Z6	X7	Y7	Z7	X8	Y8	Z8	X9	Y9	Z9	X10	Y10	Z10	X11	Y11	Z11
665	11.333434769038702	13.024277	-63.103792	-24.826141	14.713697	-50.594389	13.107321	-18.194178	-60.372846	-1.740958	20.269307	-22.727798	11.958895	-32.234349	-22.547833	-13.862896	35.424034	-8.164384	1.288896	-23.762135	-7.838133	-31.209241	10.188671	-1.570699	12.048803	-9.773006	1.035816	-11.633267	37.403431	-6.861970	-3.761218	-10.071046	-12.598431	-41.547220
666	11.350477528089888	13.086565	-63.125624	-24.447109	14.978770	-50.453821	13.823516	-18.164409	-60.336368	-0.957682	20.876720	-22.678430	12.111628	-32.131875	-22.493444	-13.503100	35.462653	-8.225110	1.277410	-23.389703	-7.835027	-31.231684	10.190591	-1.554206	12.050410	-9.775281	1.015716	-11.634899	37.340434	-7.027037	-3.799135	-9.602265	-12.607865	-41.614600
667	11.367520287141074	12.981428	-63.128492	-24.876006	14.805683	-50.456880	13.519992	-18.291135	-60.331738	-1.320264	20.654401	-22.679586	12.123704	-32.196754	-22.500416	-13.559699	35.469286	-8.123047	1.528570	-23.433978	-7.788736	-31.236458	10.195826	-1.560128	12.052227	-9.780418	1.021929	-11.636780	37.384695	-6.859113	-3.440052	-9.564434	-12.544219	-41.635497
668	11.384563046192259	12.927084	-62.994431	-24.938386	14.805351	-50.256167	13.510191	-18.342527	-60.169152	-1.342054	20.794213	-22.495688	11.904855	-32.111268	-22.276885	-13.668281	35.475070	-8.106184	0.671067	-23.103514	-7.702604	-31.376711	10.190948	-1.559886	12.054473	-9.777106	1.020968	-11.639347	37.307774	-6.861428	-4.441815	-9.228357	-12.530502	-41.778851
669	11.401605805243445	12.600153	-62.971994	-22.836110	14.625280	-50.035543	15.419448	-18.516332	-60.109884	0.603322	20.747304	-22.358667	12.844505	-32.207766	-22.207750	-12.175299	35.473274	-7.994570	1.092404	-23.161604	-7.604730	-29.732589	10.190166	-1.542244	12.053141	-9.775988	1.000757	-11.637887	37.290329	-6.665132	-4.071283	-9.198333	-12.412478	-39.994696
670	11.418648564294632	12.606758	-62.984541	-21.968461	14.661997	-50.032302	16.415713	-18.503099	-60.155996	1.125057	21.095120	-22.362069	13.871958	-32.104558	-22.240707	-11.802776	35.833482	-8.005651	2.087309	-22.595117	-7.617010	-29.635431	10.185018	-1.517931	12.064699	-9.771783	0.970117	-11.650737	37.519531	-6.666802	-3.122547	-8.333459	-12.419571	-39.985333
671	11.435691323345818	12.611868	-62.837036	-26.726808	14.674186	-50.001985	12.399799	-18.418158	-59.782320	-2.704561	20.856989	-22.271328	11.143193	-31.764543	-21.702759	-14.060870	35.740737	-7.928654	0.158291	-21.601298	-7.159616	-30.471516	10.180961	-1.541725	12.075088	-9.767723	0.993150	-11.663220	37.500559	-6.641460	-4.946600	-7.199060	-12.107762	-40.709982
672	11.452734082397004	12.521299	-62.711261	-27.420092	14.543505	-49.985950	12.034788	-18.494524	-59.709172	-3.270604	20.741100	-22.274766	10.997208	-31.766100	-21.598787	-14.626272	35.736241	-7.818739	0.016761	-21.005781	-7.037854	-30.567313	10.179820	-1.553246	12.080967	-9.766555	1.004615	-11.669736	37.501765	-6.386228	-5.089154	-6.141525	-12.014585	-40.728523
673	11.469776841448189	12.529949	-62.778235	-27.272024	14.543354	-50.101591	12.070539	-18.492213	-59.810406	-3.144588	20.741945	-22.578712	11.040406	-31.595557	-21.634199	-14.592879	35.773446	-8.190033	0.090364	-19.898789	-7.056981	-30.608996	10.179221	-1.556458	12.092124	-9.765900	1.008388	-11.681818	37.524872	-6.657514	-5.021695	-4.657924	-12.039656	-40.819217
674	11.486819600499375	12.433434	-62.718162	-28.368152	14.462947	-50.168840	11.430325	-18.491127	-59.816856	-4.121327	20.018300	-22.589353	11.006534	-31.504961	-21.656149	-14.973657	35.606648	-8.191269	0.280356	-19.796422	-7.031938	-30.572329	10.171131	-1.580181	12.115974	-9.757747	1.034124	-11.708136	37.523016	-6.677068	-4.661991	-4.763327	-11.984331	-40.704328
675	11.503862359550562	12.447234	-62.489103	-28.917814	14.462001	-50.070238	10.918138	-18.471994	-59.522054	-5.367711	19.974586	-22.553586	10.468196	-31.435896	-21.597033	-16.217988	35.628281	-8.192414	-0.276555	-19.615863	-6.887281	-30.997990	10.151576	-1.595528	12.149099	-9.741180	1.047035	-11.742716	37.595952	-6.687339	-5.273281	-4.564213	-11.786574	-40.970475
676	11.520905118601748	12.454823	-62.468981	-28.922151	14.446898	-50.079060	10.887260	-18.469447	-59.561785	-5.297100	19.983981	-22.640811	10.545470	-31.398031	-21.653846	-16.332299	35.770510	-8.195896	-0.108071	-19.035328	-6.905149	-31.073001	10.142893	-1.601214	12.160593	-9.733221	1.052915	-11.756796	37.835828	-6.663153	-5.051066	-3.623006	-11.799665	-40.993882
677	11.537947877652934	12.432360	-62.474724	-28.724856	14.354167	-50.083183	10.986211	-18.470662	-59.565226	-5.094180	19.833117	-22.633977	10.612901	-31.363127	-21.618781	-16.280029	35.707659	-8.064810	-0.062580	-19.160467	-6.649812	-30.078959	10.132867	-1.601817	12.197005	-9.722475	1.053482	-11.797450	37.800979	-6.498367	-5.027649	-3.987833	-11.484644	-39.827183
678	11.55499063670412	12.388451	-62.351724	-28.703662	14.224617	-50.073285	10.993710	-18.601774	-59.510380	-5.313249	19.862889	-22.645553	10.542228	-31.562339	-21.627469	-16.386774	35.672070	-8.087165	-0.195687	-19.315687	-6.605821	-30.133105	10.110521	-1.617423	12.216552	-9.701376	1.066809	-11.818916	37.595274	-6.518910	-5.147464	-4.051347	-11.441312	-39.964919
679	11.572033395755305	12.393386	-62.277894	-28.305029	14.220975	-50.055754	11.351942	-18.638605	-59.518800	-5.160902	20.114043	-22.642511	11.177694	-31.578913	-21.641387	-15.774583	35.867154	-8.047645	0.928126	-19.376019	-6.617659	-29.382109	10.098926	-1.618161	12.227094	-9.690652	1.067151	-11.832163	37.685228	-6.446113	-3.926758	-4.120501	-11.450297	-39.244073
680	11.589076154806492	12.381127	-62.271741	-28.922803	13.965761	-50.137317	10.828961	-18.679045	-59.525754	-6.032996	19.752043	-22.736531	10.905080	-31.594079	-21.653580	-16.483306	35.779734	-8.128243	0.890211	-19.234792	-6.617914	-29.595368	10.078852	-1.636914	12.265282	-9.670574	1.085133	-11.874053	37.672085	-6.525646	-3.944745	-3.860828	-11.447508	-39.314080
681	11.606118913857678	12.340714	-62.118878	-29.033326	13.958965	-50.120453	10.833389	-18.677023	-59.432688	-6.042931	19.631789	-22.736907	10.913606	-31.592694	-21.654687	-16.403371	35.467023	-8.119701	0.929029	-19.243297	-6.510757	-29.407931	10.052500	-1.651776	12.297070	-9.646457	1.097790	-11.908512	37.378326	-6.490519	-3.876787	-3.895051	-11.320151	-39.073120
682	11.623161672908864	12.357966	-62.132895	-28.913407	13.964826	-50.145461	10.931492	-18.548220	-59.438911	-5.850451	19.731453	-22.865391	11.491704	-31.362144	-21.663596	-16.381107	35.469160	-8.136798	2.367478	-18.858810	-6.499227	-29.363866	10.031828	-1.650867	12.325245	-9.625284	1.096777	-11.936287	37.366320	-6.497807	-2.158558	-3.543186	-11.311214	-38.979916
683	11.64020443196005	12.280510	-62.068424	-30.865196	13.926085	-50.134275	8.932609	-18.617596	-59.295996	-7.518298	19.598655	-22.852915	9.193305	-31.383967	-21.546810	-17.899826	35.469546	-8.156393	-0.322584	-18.815795	-6.511026	-30.786836	10.026474	-1.690622	12.329608	-9.620066	1.136986	-11.941598	37.401969	-6.542563	-5.071746	-3.368902	-11.341090	-40.326427
684	11.657247191011235	12.196864	-61.689167	-30.687314	13.920686	-49.841434	8.935653	-18.689947	-59.093715	-7.292837	19.468884	-22.341526	8.474569	-31.387080	-21.308847	-17.731489	35.056576	-7.960411	-2.116223	-18.925700	-6.214066	-30.878151	10.020544	-1.698898	12.330176	-9.615741	1.142911	-11.942094	36.920861	-6.482942	-7.144454	-3.549574	-11.108299	-40.470735
685	11.674289950062422	12.052415	-61.687290	-30.357297	13.834415	-49.844623	9.450836	-18.712307	-59.161553	-7.023964	19.481392	-22.350517	10.393096	-31.389351	-21.438448	-17.531732	35.259730	-7.833595	2.424099	-18.930302	-6.238747	-30.861971	10.004828	-1.699416	12.335261	-9.601693	1.143214	-11.947001	37.318619	-6.189398	-2.172937	-3.571499	-11.141280	-40.489736
686	11.691332709113608	12.104394	-61.677347	-30.148940	13.900506	-49.820687	9.537119	-18.692323	-59.140558	-6.837201	19.497253	-22.229486	9.777792	-31.383059	-21.392394	-17.383279	35.249357	-7.779400	0.498892	-18.977182	-6.164061	-30.785161	10.001688	-1.705140	12.337325	-9.598686	1.148078	-11.949975	37.266211	-6.182668	-4.277080	-3.682836	-11.072929	-40.403681
687	11.708375468164794	12.108576	-61.695836	-29.966070	13.900380	-49.837641	9.618070	-18.690619	-59.172942	-6.714530	19.521993	-22.254608	9.803495	-31.385399	-21.422627	-17.113672	35.286432	-7.788728	0.169655	-19.005129	-6.174259	-30.022946	9.997316	-1.707149	12.339661	-9.593265	1.150053	-11.953268	37.282840	-6.186388	-4.682339	-3.716806	-11.035376	-39.627526
688	11.72541822721598	11.669280	-61.635958	-29.879608	13.422035	-49.841305	9.724067	-19.170708	-59.174981	-6.562636	19.167585	-22.231680	9.924822	-31.801443	-21.353796	-17.022559	35.238447	-7.612143	0.750205	-19.108643	-6.010943	-30.027568	9.996128	-1.722801	12.341275	-9.592103	1.167354	-11.954533	37.285788	-6.032632	-3.982395	-3.745188	-10.929172	-39.656600
689	11.742460986267165	11.563150	-61.644435	-29.796055	13.426360	-49.976827	9.730935	-19.284950	-59.271922	-6.442543	19.187042	-22.245136	9.941415	-31.904304	-21.358601	-16.945329	35.274949	-7.612793	1.313187	-19.148917	-6.025234	-30.132311	9.994608	-1.755747	12.336424	-9.591014	1.199480	-11.949596	37.378464	-6.038628	-3.327798	-3.825731	-10.976284	-39.779726
690	11.759503745318352	11.526011	-61.596576	-29.812570	13.433525	-49.937376	9.795026	-19.298217	-59.267125	-6.415608	19.202595	-22.166542	9.946768	-31.943381	-21.370424	-16.952359	35.278077	-7.587046	1.204591	-19.173421	-6.005073	-30.202040	9.989275	-1.762376	12.342340	-9.586209	1.205263	-11.955210	37.377404	-6.043153	-3.458889	-3.886722	-10.911500	-39.840802
691	11.776546504369538	11.290967	-61.603270	-29.787393	13.361081	-49.943489	9.844592	-19.388153	-59.312884	-6.338555	19.098684	-22.169932	10.370068	-32.010690	-21.417420	-16.924487	35.286424	-7.588978	2.461480	-19.208628	-6.064765	-30.794013	9.985775	-1.767583	12.344979	-9.583938	1.210504	-11.957274	37.510908	-6.047542	-2.126259	-3.931191	-11.065861	-40.633488
